<svg width="1296" height="160" viewBox="0 0 1296 160" fill="none" xmlns="http://www.w3.org/2000/svg">
<path d="M0 160V80V0H1296V160H0Z" fill="white"/>
<path fill-rule="evenodd" clip-rule="evenodd" d="M26.4039 68.5081C26.7993 26.5857 26.8163 24.7834 31.1992 20.5997C35.1992 16.5997 36.9992 16.3997 51.1992 17.3997C59.9992 17.9997 70.3992 19.5997 74.3992 21.1997C78.5992 22.7997 81.5992 23.9997 80.9992 23.9997C80.3992 23.9997 83.1992 27.1997 86.9992 30.9997C90.7992 34.7997 96.1992 41.7997 98.9992 46.3997C102.199 51.7996 104.599 59.5996 105.199 66.9996C105.999 74.7996 105.599 81.9996 103.799 87.3996C102.199 91.9996 97.7992 99.3996 93.9992 104.2C90.1992 108.8 82.3992 114.6 76.9992 117.2C69.1992 120.8 63.5992 122 50.9992 122C36.9992 122 34.3992 121.6 30.3992 117.6C25.9992 113 25.9992 112.2 26.3992 68.9996L26.4039 68.5081ZM140.999 33.5997C144.399 27.1997 148.399 21.7997 149.999 21.1997L149.999 21.1996C151.599 20.7997 153.199 20.3997 153.399 20.1997C153.799 20.1997 155.399 20.5997 157.199 21.5997C158.799 22.3997 163.399 29.5997 167.199 37.5997C170.999 45.3997 173.999 52.9996 173.999 53.9996C173.999 55.1996 174.599 55.9996 175.399 55.9996C176.399 55.9996 177.199 57.9996 177.399 60.3996C177.599 62.9996 178.799 65.1996 179.999 65.5996C180.999 65.7996 181.999 67.1996 181.999 68.5996C181.999 69.7996 184.199 76.3996 186.999 82.9996C189.999 89.5996 193.999 98.3996 196.199 102.6C198.199 106.6 199.999 111.8 199.999 114C199.999 116.2 198.199 119 195.999 120C192.999 121.6 191.199 121.2 188.199 118.6C186.199 116.6 183.399 111.8 181.999 108C180.599 104.2 176.599 98.5996 173.199 95.5996C167.599 90.5996 165.399 89.9996 138.999 89.9996L125.599 104C117.999 111.8 110.399 118 108.399 118C106.599 118 103.999 116 102.599 113.6C101.399 111 100.799 106.8 101.399 104C102.199 101.2 104.799 95.7996 107.399 91.9996C109.999 88.1996 111.999 83.7996 111.999 82.5996C111.999 81.1996 113.199 78.7996 114.399 77.3996C115.799 75.9996 118.199 72.5996 119.799 69.9996C120.416 68.9194 121.242 67.4523 122.15 65.8393L122.152 65.8362L122.152 65.8349L122.154 65.832C123.598 63.2657 125.249 60.3314 126.599 57.9996C128.599 54.1996 131.399 49.5996 132.799 47.9996C133.999 46.3997 137.799 39.7997 140.999 33.5997ZM214.999 24.5997C214.599 25.7997 213.599 40.5997 212.999 56.9996C212.199 73.5996 211.599 92.9996 211.399 100.2C210.999 111.2 211.799 114.4 214.999 117.8C217.199 120.2 219.599 122.2 220.399 122C221.399 122 224.799 119 227.999 115.4L233.999 109C248.799 114.6 256.999 117.6 261.999 119.4C266.999 121.2 272.599 122 274.399 121.2C276.399 120.6 277.999 118 277.999 115.4C277.999 113 276.799 109.4 275.399 107.6C273.999 105.6 271.599 104.2 269.999 104C268.399 104 266.999 102.4 266.999 100.4C266.999 98.5996 269.799 94.1996 272.999 90.5996C276.399 87.1996 280.199 80.3996 281.599 75.5996C283.999 68.1996 283.799 65.1996 280.999 53.9996C278.199 42.5997 276.599 39.7997 267.399 31.3997L256.999 21.7997C221.799 21.9997 215.599 22.7997 214.999 24.5997ZM354.999 70.9996C355.599 41.5997 356.599 26.1997 358.199 24.5997C359.799 22.7997 366.999 21.9997 381.199 21.9997C397.399 21.9997 403.199 22.7997 407.599 25.3997C410.599 27.3997 413.599 29.9997 414.599 31.3997C415.399 32.7997 417.199 33.9997 418.599 33.9997C419.799 33.9997 423.599 39.5997 426.799 46.3997C431.199 56.1996 432.199 60.7996 431.399 66.9996C430.799 71.3996 429.599 76.7996 428.799 78.9996C427.799 81.1996 424.399 85.9996 420.999 89.7996C417.799 93.3996 411.599 98.1996 407.599 100.2C402.999 102.4 395.799 104 389.599 104C383.799 104 376.999 104.4 374.599 105C370.999 105.8 369.799 107.6 369.599 113.6C368.999 119.8 368.199 121.2 363.999 121.6C360.799 122 358.199 121 356.599 118.6C354.799 116 354.399 102.8 354.999 70.9996ZM456.999 23.3997C451.599 23.5997 445.799 24.9997 444.599 26.3997C442.799 28.3997 442.199 40.7997 442.599 74.7996C442.999 116 443.399 120.8 446.599 122.8C448.999 124.4 450.999 124.4 453.599 122.8C455.399 121.6 457.199 118.2 457.599 115.2C457.799 112.4 458.599 110 459.599 110C460.399 110 461.799 110.6 462.599 111.4C463.599 112.2 465.399 113.2 466.599 113.4C467.999 113.6 472.199 114.8 475.999 116.2C478.711 117.199 482.034 118.401 484.514 119.299L484.523 119.302L484.54 119.308L484.561 119.316L484.569 119.319L484.573 119.32L484.592 119.327L485.749 119.746C486.226 119.919 486.648 120.072 486.999 120.2C489.199 121 493.599 122.4 496.999 123C501.199 123.8 503.799 123.4 505.599 121.2C506.799 119.4 507.599 116.4 507.199 114.6C506.599 112.6 503.399 109.6 499.999 108C496.599 106.4 493.799 103.8 493.999 102.6C493.999 101.2 495.199 98.7996 496.599 97.1996C497.163 96.5421 498.168 95.3995 499.344 94.0615L499.347 94.0578L499.365 94.0379L499.38 94.0204L499.384 94.0164L499.384 94.016L499.401 93.9971L499.413 93.9829C500.726 92.4898 502.244 90.7632 503.599 89.1996C505.999 86.3996 508.799 80.5996 509.999 76.5996C510.999 72.3996 511.399 65.3996 510.599 60.9996C509.999 56.5996 508.199 50.7996 506.799 47.9996C505.399 45.1997 501.799 40.3997 498.599 37.1997C495.599 33.7997 489.399 29.7997 484.999 27.7997C480.599 25.9997 474.799 24.1997 471.999 23.5997C469.199 23.1997 462.599 22.9997 456.999 23.3997ZM537.999 35.5997C540.799 32.7997 546.599 28.3997 550.999 26.1997C556.199 23.3997 562.799 21.9997 569.999 21.9997C577.599 21.7997 581.999 22.7997 583.999 24.9997C585.599 26.7997 587.599 28.1997 588.599 27.9997C589.399 27.9997 593.199 31.3997 596.999 35.5997C600.799 39.5997 605.799 46.5996 607.999 50.9996C610.599 55.7996 612.399 64.1996 612.999 71.9996C613.399 79.1996 612.599 88.3996 611.399 92.5996C609.999 96.5996 608.399 99.9996 607.599 99.9996C606.599 99.9996 605.999 101.2 605.999 102.6C605.799 103.8 603.399 107.8 600.399 111.2C597.399 114.6 591.199 119.4 586.599 121.8C581.799 124 574.999 126 571.599 126C567.999 126 560.999 124.6 555.999 123C550.999 121.2 543.999 117 540.399 113.4C536.599 109.8 531.999 103.4 529.999 98.9996C527.999 94.5996 525.199 86.9996 523.999 81.9996C522.399 75.1996 522.399 70.1996 524.199 61.9996C525.399 55.9996 527.999 48.7996 529.799 45.9997C531.599 43.1997 535.199 38.5997 537.999 35.5997ZM623.799 27.7997C622.399 29.7997 621.599 35.7997 621.799 41.1997C622.199 46.5996 623.599 57.3996 624.999 64.9996C626.399 72.7996 629.799 83.7996 632.799 89.5996C635.599 95.1996 641.799 104 646.599 108.8C651.199 113.6 657.199 118 659.999 118.8C662.999 119.4 666.799 118.8 669.599 117C671.999 115.4 673.999 113 673.999 112C673.999 111.989 674 111.968 674 111.938L674.004 111.834L674.008 111.693L674.018 111.421C674.026 111.171 674.038 110.845 674.052 110.447V110.445C674.408 100.564 676.349 46.5747 673.999 27.7997C673.606 24.6605 670.607 24.8884 668.983 25.0117C668.494 25.0488 668.13 25.0765 667.999 24.9998C666.165 24.0829 663.709 43.8169 661.318 63.0328C659.014 81.5435 656.769 99.5735 655.199 98.1996C652.199 95.3996 646.999 87.3996 643.799 80.5996C640.199 72.5996 637.999 64.3996 637.799 58.5996C637.799 53.1996 636.999 44.1997 636.399 38.3997C635.599 32.5997 633.599 26.9997 631.999 25.9997C630.399 24.9997 628.399 23.9997 627.599 23.9997C626.799 23.9997 624.999 25.5997 623.799 27.7997ZM816.399 35.9997C818.999 34.3997 823.799 31.9997 826.999 30.5997C830.199 29.3997 836.399 28.1997 840.599 28.1997C844.599 27.9997 851.399 29.7997 855.599 31.7997C859.599 33.7997 865.599 38.1997 868.799 41.1997C871.799 44.3997 875.199 48.9996 876.199 51.5996C877.199 53.9996 877.999 57.3996 877.999 58.9996C877.999 60.7996 876.199 61.9996 873.599 61.9996C870.999 62.1996 867.199 60.1996 864.999 57.7996C862.799 55.5996 857.799 51.7996 853.999 49.5996C847.799 45.9996 845.999 45.7997 838.599 47.7996C833.799 48.9996 828.799 51.1996 827.199 52.5996C824.999 54.5996 826.599 56.3996 837.199 63.5996C844.199 68.1996 849.999 72.5996 849.999 73.5996C849.999 74.3996 853.799 77.1996 858.399 79.9996C863.199 82.5996 869.999 87.3996 873.599 90.3996C876.999 93.5996 879.999 97.7996 879.999 99.9996C879.999 102.2 878.399 106.4 876.599 109.6C874.799 112.6 870.999 117.2 868.199 119.6C865.399 122.2 859.799 125.6 855.999 127.2C852.199 128.8 845.799 130 841.999 130C838.199 130 831.399 128.2 826.999 126C822.599 124 817.199 120.6 814.999 118.6C812.799 116.6 809.399 112.8 807.399 110C805.599 107.2 803.999 103.2 803.799 101C803.799 98.7996 805.199 95.7996 806.999 94.5996C809.599 92.3996 811.399 93.3996 818.599 101C825.999 109 827.999 110.2 835.999 110.4C840.999 110.6 847.999 109.4 851.599 107.8C855.599 106.2 858.199 103.6 857.999 101.6C857.999 99.5996 854.799 96.1996 850.999 93.9996C847.199 91.7996 843.999 89.3996 843.999 88.5996C843.999 87.5996 841.599 85.7996 838.599 84.1996C835.599 82.7996 826.999 76.5996 819.599 70.7996C811.999 64.7996 805.599 58.1996 804.999 55.9996C804.399 53.7996 805.799 48.9996 807.799 45.5997C809.999 41.9997 813.799 37.5997 816.399 35.9997ZM911.999 32.1997C906.999 34.3997 899.999 38.3997 896.599 41.1997C892.199 44.3997 889.999 47.5996 889.999 50.9996C889.999 53.9996 891.599 56.7996 893.999 57.9996C896.999 59.3996 899.799 59.1996 904.599 56.7996C907.999 54.9996 912.599 52.5996 914.599 51.7996C916.399 50.7996 919.799 50.3996 921.999 50.9996C925.199 51.7996 925.999 53.7996 925.999 60.5996C926.199 65.1996 926.199 81.1996 926.199 95.9996C925.999 116.8 926.599 124 928.999 127C931.599 130.4 932.599 130.6 936.999 128.6L941.999 126C941.999 53.9996 942.199 51.7996 945.999 49.9996C948.199 48.9996 951.399 48.3996 952.999 48.9996C954.599 49.5996 955.999 50.9996 955.999 51.9996C955.999 53.1996 957.399 53.5996 958.999 52.9996C960.599 52.3996 963.999 53.7996 966.599 56.1996C968.999 58.3996 972.799 59.9996 974.999 59.5996C977.399 59.1996 979.199 57.1996 979.599 54.5996C979.799 51.3996 977.399 47.5996 971.799 42.5997C967.399 38.3997 959.399 33.3997 954.399 31.5997C949.199 29.7997 939.599 28.1997 932.999 28.1997C924.999 28.0663 917.999 29.3997 911.999 32.1997ZM1002.2 43.9997C1006.6 38.9997 1013 33.9997 1016.6 32.5997C1020.2 31.3997 1027.2 30.1997 1032.6 30.1997C1038.8 29.9997 1044.8 31.5997 1050.2 34.5997C1054.8 36.9997 1061.6 42.5997 1065.2 46.9996C1068.8 51.3996 1073.2 58.9996 1075 63.9996C1076.8 68.9996 1078 79.3996 1078 87.5996C1078 98.5996 1077 103.8 1073.6 109.6C1071.2 113.6 1067.2 119 1064.6 121.6C1062.2 124 1056.8 127.8 1053 130C1049 132.2 1042.2 134 1037.6 134C1032.8 134 1025 132.4 1020 130.2C1015 128 1008.2 123.2 1004.6 119.6C1001 116 996.199 108.6 993.799 103C990.599 95.5996 989.599 89.3996 989.799 79.5996C989.799 71.9996 991.199 63.5996 992.999 60.5996C994.599 57.3996 995.399 54.5996 994.999 53.9996C994.399 53.3996 997.599 48.9996 1002.2 43.9997ZM1096.4 32.5997C1095.2 33.9997 1094.2 52.5996 1094.2 80.5996L1094 126C1103 130.6 1104.4 130.4 1107 128C1108.8 126.4 1110.2 123.8 1110 122.6C1110 121.2 1111 119.6 1112 119C1113 118.4 1123.6 121.2 1135.6 125.2C1156.2 132.2 1157 132.4 1159.6 128.8C1161 126.6 1162 124.4 1162 123.6C1162 122.6 1160 120 1157.6 117.4C1155 114.8 1151.8 112.4 1150.2 111.8C1148.2 111.2 1147.8 109.4 1148.8 105C1149.4 101.8 1150.8 99.5996 1151.6 100.4C1152.4 101.4 1155.2 98.5996 1158 94.3996C1161.8 88.3996 1162.8 84.3996 1162.8 73.9996C1162.8 66.7996 1161.6 58.7996 1160.2 55.9996C1158.8 53.1996 1154.2 47.5996 1150.2 43.3997C1146.2 39.1997 1139.8 34.3997 1136 32.7997C1132 31.1997 1122.6 29.9997 1113.8 29.9997C1104 29.9997 1097.8 30.9997 1096.4 32.5997ZM1190.4 42.9997C1195 38.5997 1201.4 33.7997 1204.8 32.5997C1208.2 31.1997 1215.2 30.1997 1220.2 30.5997C1226.4 30.7997 1231.8 32.7997 1237.8 36.9997C1242.6 40.3997 1247.4 45.1997 1248.2 47.9996C1249.4 51.3996 1249.2 53.7996 1247.6 55.5996C1246.2 56.9996 1243 58.1996 1240.6 57.9996C1238 57.9996 1235.6 57.1996 1235 55.9996C1234.4 54.9996 1228.2 53.9996 1221 53.9996C1209.4 53.9996 1207.4 54.5996 1203 59.5996C1200.2 62.5996 1198.2 66.1996 1198.4 67.5996C1198.8 69.5996 1203 70.3996 1212.6 70.5996C1224.6 70.9996 1226.8 71.5996 1230.2 75.9996C1232.4 78.7996 1234.2 82.7996 1234.2 84.9996C1234.2 87.7996 1231.8 89.7996 1226.6 91.5996C1222.4 93.1996 1214.2 93.9996 1208.4 93.5996C1201 93.1996 1198 93.7996 1198 95.5996C1198 96.7996 1197 98.1996 1195.6 98.5996C1194.2 98.7996 1195.2 101.4 1198.2 105.4C1201.8 110 1204 111.4 1207 110.4C1209.8 109.6 1210.6 109.8 1209.6 111.6C1208.4 113.4 1210.8 114 1218.6 114C1226 114 1230.2 112.8 1233 110.2C1235.2 108.2 1239 106 1241.6 105.2C1244.2 104.4 1247.2 105.2 1249 107C1250.6 108.6 1252 112.8 1252 116C1252 121.2 1250.4 123 1241.6 128.2C1232.2 133.8 1229.8 134.4 1219 133.6C1210 133 1205 131.2 1199 127C1194.6 124 1188.6 118 1185.6 113.8C1182.4 109.4 1178.6 100.8 1176.8 94.5996C1175 87.9996 1174.2 80.1996 1174.8 76.5996C1175.4 72.5996 1175.2 69.9996 1174 69.9996C1173 69.9996 1174.4 65.7996 1177.2 60.5996C1180 55.1996 1186 47.3997 1190.4 42.9997ZM708.999 94.9996C705.999 97.9996 704.199 102.2 704.199 106.4C703.999 110 705.199 115.2 706.599 117.6C707.799 120.2 711.199 123.8 713.999 125.4C717.999 128 720.199 128.2 724.999 126.4C728.199 125.2 732.199 121.6 733.599 118.6C735.399 114.8 735.799 110.6 734.599 105.2C733.599 100.6 730.999 95.7996 727.999 93.5996C725.199 91.5996 720.999 89.7996 718.399 89.9996C715.799 89.9996 711.599 92.1996 708.999 94.9996ZM53.1991 39.4C50.9991 40 48.5991 41.6 47.7991 42.7999C46.9991 44 46.1991 56.1999 46.1991 69.9999C45.9991 83.7999 46.7991 96.3999 47.7991 97.9999C49.3991 100.4 51.9991 100.6 59.3991 99.5999C66.3991 98.5999 70.7991 96.3999 75.5991 91.5999C79.1991 87.9999 81.999 83.7999 81.999 82.5999C81.999 81.1999 82.999 79.9999 83.999 79.9999C85.1991 79.9999 85.999 74.5999 85.999 67.9999C85.999 61.3999 84.799 53.9999 83.3991 51.5999C82.1991 49.1999 79.7991 46 78.3991 44.6C77.1991 43.2 72.9991 41 69.3991 40C65.9991 38.8 61.5991 38.2 59.9991 38.2C58.3991 38.4 55.1991 39 53.1991 39.4ZM233.999 42.6C229.399 44.6 229.199 45.1999 229.599 62.3999C229.999 78.5999 230.399 80.1999 234.599 81.7999C237.399 82.9999 242.399 82.7999 248.199 81.1999C253.199 79.9999 258.599 77.5999 260.199 75.9999C261.799 74.3999 264.199 70.5999 265.599 67.5999C266.799 64.3999 267.999 60.1999 267.999 57.9999C267.999 55.7999 265.599 51.3999 262.599 48C258.399 43.6 254.799 42 247.999 41.4C242.999 41 236.799 41.4 233.999 42.6ZM371.999 43C373.199 43.6 374.599 43 375.399 41.7999C376.399 40.2 381.199 39.8 390.799 40.7999C403.599 41.7999 405.599 42.5999 410.799 48.5999C415.799 54.1999 416.399 55.9999 415.199 62.9999C414.399 67.3999 412.799 72.5999 411.799 74.3999C410.799 76.3999 405.799 79.7999 400.399 81.9999C395.199 84.1999 387.799 85.9999 383.999 85.9999C380.199 85.9999 375.399 84.7999 373.599 83.3999C370.799 81.3999 370.199 77.5999 369.999 61.5999C369.999 49.2 370.799 42.4 371.999 43ZM460.199 43.4C457.799 44.1999 457.199 48.5999 457.599 65.5999L457.999 86.9999C474.199 85.1999 481.999 83.1999 485.599 81.3999C488.999 79.5999 492.799 75.7999 493.999 72.9999C495.199 70.1999 495.999 65.1999 495.999 61.9999C495.999 58.1999 493.999 53.5999 490.399 49.7999C485.799 44.6 483.399 43.6 473.999 43.2C467.999 42.7999 461.599 43 460.199 43.4ZM540.999 62.5999C542.799 58.3999 547.999 51.9999 552.599 48.5999C559.599 43 562.799 42 571.999 42C581.399 42 583.799 42.5999 588.399 47.3999C591.399 50.5999 594.799 55.7999 595.999 58.9999C597.399 62.1999 598.399 68.9999 598.199 73.9999C598.199 78.9999 596.999 83.9999 595.999 84.9999C594.799 85.9999 593.999 88.5999 593.999 90.3999C593.999 92.3999 592.599 94.3999 590.999 94.9999C589.399 95.5999 587.999 97.3999 587.999 98.9999C587.999 100.8 584.199 103.2 578.399 105C573.199 106.6 566.999 108 564.399 108C561.999 108 556.999 106.6 553.399 105C549.399 103 545.399 98.5999 542.399 92.9999C539.999 87.9999 537.999 80.7999 537.999 76.9999C537.999 73.1999 539.399 66.5999 540.999 62.5999ZM1015.8 55.3999C1012.4 58.5999 1008.2 63.3999 1006.8 66.3999C1005.2 69.5999 1004 76.3999 1004 81.9999C1004 87.9999 1005.6 95.1999 1008 99.9999C1010.2 104.4 1014 109.4 1016.6 111C1019 112.8 1025.4 114 1031.6 114C1038 114 1044 112.6 1047.4 110.6C1050.4 108.6 1055.2 103.4 1058.4 98.9999C1062.8 92.7999 1064.2 88.7999 1064 81.3999C1064 76.1999 1063.2 69.9999 1062.2 67.5999C1061.2 64.9999 1058.8 61.1999 1056.8 58.7999C1054.6 56.5999 1051 53.5999 1048.4 52.3999C1046 50.9999 1039.2 50 1033.2 50C1024.2 50 1021.2 50.9999 1015.8 55.5999V55.3999ZM1110 70.7999V50.7999C1110 50.2 1115.4 49.7999 1122 49.7999C1128.6 49.7999 1134.4 50.7999 1135 51.7999C1135.6 52.9999 1137 53.3999 1138 52.7999C1139 52.2 1141.4 53.9999 1143 56.7999C1144.6 59.5999 1146 65.5999 1146 70.3999C1146 76.9999 1145 79.9999 1140.6 84.1999C1137.4 87.1999 1131.2 90.3999 1126 91.3999C1121 92.5999 1115.4 93.1999 1113.4 92.9999C1111.6 92.9999 1110 92.1999 1110 91.3999V70.7999ZM150.199 58.9999C149.199 61.7999 148.399 64.9999 148.199 65.9999C147.999 66.9999 149.999 67.7999 152.399 67.7999C154.999 67.9999 158.199 66.7999 159.399 65.3999C161.399 63.3999 161.199 61.7999 157.999 58.3999C155.799 55.7999 153.599 53.7999 152.999 53.7999C152.399 53.7999 151.199 56.1999 150.199 58.9999Z" fill="#FF0000"/>
</svg>
