<svg width="24" height="24" viewBox="0 0 12 12" fill="none" xmlns="http://www.w3.org/2000/svg">
<path d="M4.125 4.125C4.22446 4.125 4.31984 4.16451 4.39016 4.23484C4.46049 4.30516 4.5 4.40054 4.5 4.5V9C4.5 9.09946 4.46049 9.19484 4.39016 9.26517C4.31984 9.33549 4.22446 9.375 4.125 9.375C4.02554 9.375 3.93016 9.33549 3.85984 9.26517C3.78951 9.19484 3.75 9.09946 3.75 9V4.5C3.75 4.40054 3.78951 4.30516 3.85984 4.23484C3.93016 4.16451 4.02554 4.125 4.125 4.125ZM6 4.125C6.09946 4.125 6.19484 4.16451 6.26517 4.23484C6.33549 4.30516 6.375 4.40054 6.375 4.5V9C6.375 9.09946 6.33549 9.19484 6.26517 9.26517C6.19484 9.33549 6.09946 9.375 6 9.375C5.90054 9.375 5.80516 9.33549 5.73484 9.26517C5.66451 9.19484 5.625 9.09946 5.625 9V4.5C5.625 4.40054 5.66451 4.30516 5.73484 4.23484C5.80516 4.16451 5.90054 4.125 6 4.125ZM8.25 4.5C8.25 4.40054 8.21049 4.30516 8.14017 4.23484C8.06984 4.16451 7.97446 4.125 7.875 4.125C7.77554 4.125 7.68016 4.16451 7.60983 4.23484C7.53951 4.30516 7.5 4.40054 7.5 4.5V9C7.5 9.09946 7.53951 9.19484 7.60983 9.26517C7.68016 9.33549 7.77554 9.375 7.875 9.375C7.97446 9.375 8.06984 9.33549 8.14017 9.26517C8.21049 9.19484 8.25 9.09946 8.25 9V4.5Z" fill="#FF0000"/>
<path d="M10.875 2.25C10.875 2.44891 10.796 2.63968 10.6553 2.78033C10.5147 2.92098 10.3239 3 10.125 3H9.75V9.75C9.75 10.1478 9.59196 10.5294 9.31066 10.8107C9.02936 11.092 8.64782 11.25 8.25 11.25H3.75C3.35218 11.25 2.97064 11.092 2.68934 10.8107C2.40804 10.5294 2.25 10.1478 2.25 9.75V3H1.875C1.67609 3 1.48532 2.92098 1.34467 2.78033C1.20402 2.63968 1.125 2.44891 1.125 2.25V1.5C1.125 1.30109 1.20402 1.11032 1.34467 0.96967C1.48532 0.829018 1.67609 0.75 1.875 0.75H4.5C4.5 0.551088 4.57902 0.360322 4.71967 0.21967C4.86032 0.0790176 5.05109 0 5.25 0L6.75 0C6.94891 0 7.13968 0.0790176 7.28033 0.21967C7.42098 0.360322 7.5 0.551088 7.5 0.75H10.125C10.3239 0.75 10.5147 0.829018 10.6553 0.96967C10.796 1.11032 10.875 1.30109 10.875 1.5V2.25ZM3.0885 3L3 3.04425V9.75C3 9.94891 3.07902 10.1397 3.21967 10.2803C3.36032 10.421 3.55109 10.5 3.75 10.5H8.25C8.44891 10.5 8.63968 10.421 8.78033 10.2803C8.92098 10.1397 9 9.94891 9 9.75V3.04425L8.9115 3H3.0885ZM1.875 2.25H10.125V1.5H1.875V2.25Z" fill="#FF0000"/>
</svg>
